{
	"asset":{
		"generator":"Khronos glTF Blender I/O v3.5.30",
		"version":"2.0"
	},
	"scene":0,
	"scenes":[
		{
			"name":"Scene",
			"nodes":[
				0,
				1,
				5
			]
		}
	],
	"nodes":[
		{
			"mesh":0,
			"name":"Circle",
			"scale":[
				0.2979574501514435,
				0.2979574501514435,
				0.2979574501514435
			],
			"translation":[
				-0.00014336072490550578,
				-0.031090758740901947,
				-0.0011298528406769037
			]
		},
		{
			"mesh":1,
			"name":"Curve",
			"scale":[
				-5.051015853881836,
				-5.051015853881836,
				-5.051015853881836
			],
			"translation":[
				-0.00014336072490550578,
				0.01615089178085327,
				-0.0011298528406769037
			]
		},
		{
			"mesh":2,
			"name":"Curve.001",
			"rotation":[
				0,
				-0.0054020569659769535,
				0,
				0.99998539686203
			],
			"scale":[
				15.377654075622559,
				15.377655982971191,
				15.377654075622559
			],
			"translation":[
				-0.8498306274414062,
				-0.04446597397327423,
				-0.23609457910060883
			]
		},
		{
			"mesh":3,
			"name":"Curve.002",
			"rotation":[
				0,
				0.017941998317837715,
				0,
				0.9998391270637512
			],
			"scale":[
				15.158244132995605,
				15.158245086669922,
				15.158244132995605
			],
			"translation":[
				-0.42968982458114624,
				-0.07268646359443665,
				0.9345911741256714
			]
		},
		{
			"mesh":4,
			"name":"Curve.030",
			"scale":[
				15.377654075622559,
				15.377654075622559,
				15.377654075622559
			],
			"translation":[
				-0.970065176486969,
				-0.06609039008617401,
				0.6371468901634216
			]
		},
		{
			"children":[
				2,
				3,
				4
			],
			"name":"BezierCircle",
			"scale":[
				0.27415281534194946,
				0.2741527557373047,
				0.27415281534194946
			],
			"translation":[
				-5.040242103859782e-05,
				0.07820150256156921,
				-0.00039723096415400505
			]
		}
	],
	"animations":[
		{
			"channels":[
				{
					"sampler":0,
					"target":{
						"node":5,
						"path":"rotation"
					}
				}
			],
			"name":"BezierCircleAction",
			"samplers":[
				{
					"input":18,
					"interpolation":"LINEAR",
					"output":19
				}
			]
		}
	],
	"materials":[
		{
			"doubleSided":true,
			"name":"Material",
			"pbrMetallicRoughness":{
				"baseColorFactor":[
					0.22696566581726074,
					0.008022959344089031,
					0.4620768129825592,
					1
				],
				"metallicFactor":0,
				"roughnessFactor":0.5
			}
		},
		{
			"doubleSided":true,
			"name":"Material.002",
			"pbrMetallicRoughness":{
				"baseColorFactor":[
					0,
					0.008631749078631401,
					0.8000000715255737,
					1
				],
				"metallicFactor":0,
				"roughnessFactor":0.5
			}
		}
	],
	"meshes":[
		{
			"name":"Circle.001",
			"primitives":[
				{
					"attributes":{
						"POSITION":0,
						"TEXCOORD_0":1,
						"NORMAL":2
					},
					"indices":3,
					"material":0
				}
			]
		},
		{
			"name":"Mesh",
			"primitives":[
				{
					"attributes":{
						"POSITION":4,
						"NORMAL":5
					},
					"indices":6,
					"material":1
				}
			]
		},
		{
			"name":"Curve.034",
			"primitives":[
				{
					"attributes":{
						"POSITION":7,
						"TEXCOORD_0":8,
						"NORMAL":9
					},
					"indices":10,
					"material":0
				}
			]
		},
		{
			"name":"Mesh.001",
			"primitives":[
				{
					"attributes":{
						"POSITION":11,
						"NORMAL":12
					},
					"indices":13
				}
			]
		},
		{
			"name":"Curve.033",
			"primitives":[
				{
					"attributes":{
						"POSITION":14,
						"TEXCOORD_0":15,
						"NORMAL":16
					},
					"indices":17
				}
			]
		}
	],
	"accessors":[
		{
			"bufferView":0,
			"componentType":5126,
			"count":11352,
			"max":[
				0.998656153678894,
				0.3089354336261749,
				0.9991682767868042
			],
			"min":[
				-0.998656153678894,
				0,
				-0.9991682767868042
			],
			"type":"VEC3"
		},
		{
			"bufferView":1,
			"componentType":5126,
			"count":11352,
			"type":"VEC2"
		},
		{
			"bufferView":2,
			"componentType":5126,
			"count":11352,
			"type":"VEC3"
		},
		{
			"bufferView":3,
			"componentType":5123,
			"count":18576,
			"type":"SCALAR"
		},
		{
			"bufferView":4,
			"componentType":5126,
			"count":180,
			"max":[
				0.01783420518040657,
				0.0011981579009443521,
				0.0203678198158741
			],
			"min":[
				-0.017688466235995293,
				-0.001219731755554676,
				-0.020600389689207077
			],
			"type":"VEC3"
		},
		{
			"bufferView":5,
			"componentType":5126,
			"count":180,
			"type":"VEC3"
		},
		{
			"bufferView":6,
			"componentType":5123,
			"count":288,
			"type":"SCALAR"
		},
		{
			"bufferView":7,
			"componentType":5126,
			"count":3,
			"max":[
				0.0013142083771526814,
				0,
				0.0011333785951137543
			],
			"min":[
				-0.0021816794760525227,
				0,
				-0.0005717650055885315
			],
			"type":"VEC3"
		},
		{
			"bufferView":8,
			"componentType":5126,
			"count":3,
			"type":"VEC2"
		},
		{
			"bufferView":9,
			"componentType":5126,
			"count":3,
			"type":"VEC3"
		},
		{
			"bufferView":10,
			"componentType":5123,
			"count":3,
			"type":"SCALAR"
		},
		{
			"bufferView":11,
			"componentType":5126,
			"count":226,
			"max":[
				0.086430624127388,
				0.0035490954760462046,
				-0.0006187930703163147
			],
			"min":[
				0.0006579246837645769,
				-0.0005825568805448711,
				-0.04026605933904648
			],
			"type":"VEC3"
		},
		{
			"bufferView":12,
			"componentType":5126,
			"count":226,
			"type":"VEC3"
		},
		{
			"bufferView":13,
			"componentType":5123,
			"count":402,
			"type":"SCALAR"
		},
		{
			"bufferView":14,
			"componentType":5126,
			"count":5646,
			"max":[
				0.12387268990278244,
				0.0013002213090658188,
				-0.000105246901512146
			],
			"min":[
				0.00027230597333982587,
				0,
				-0.10295594483613968
			],
			"type":"VEC3"
		},
		{
			"bufferView":15,
			"componentType":5126,
			"count":5646,
			"type":"VEC2"
		},
		{
			"bufferView":16,
			"componentType":5126,
			"count":5646,
			"type":"VEC3"
		},
		{
			"bufferView":17,
			"componentType":5123,
			"count":10956,
			"type":"SCALAR"
		},
		{
			"bufferView":18,
			"componentType":5126,
			"count":250,
			"max":[
				10.416666666666666
			],
			"min":[
				0.041666666666666664
			],
			"type":"SCALAR"
		},
		{
			"bufferView":19,
			"componentType":5126,
			"count":250,
			"type":"VEC4"
		}
	],
	"bufferViews":[
		{
			"buffer":0,
			"byteLength":136224,
			"byteOffset":0,
			"target":34962
		},
		{
			"buffer":0,
			"byteLength":90816,
			"byteOffset":136224,
			"target":34962
		},
		{
			"buffer":0,
			"byteLength":136224,
			"byteOffset":227040,
			"target":34962
		},
		{
			"buffer":0,
			"byteLength":37152,
			"byteOffset":363264,
			"target":34963
		},
		{
			"buffer":0,
			"byteLength":2160,
			"byteOffset":400416,
			"target":34962
		},
		{
			"buffer":0,
			"byteLength":2160,
			"byteOffset":402576,
			"target":34962
		},
		{
			"buffer":0,
			"byteLength":576,
			"byteOffset":404736,
			"target":34963
		},
		{
			"buffer":0,
			"byteLength":36,
			"byteOffset":405312,
			"target":34962
		},
		{
			"buffer":0,
			"byteLength":24,
			"byteOffset":405348,
			"target":34962
		},
		{
			"buffer":0,
			"byteLength":36,
			"byteOffset":405372,
			"target":34962
		},
		{
			"buffer":0,
			"byteLength":6,
			"byteOffset":405408,
			"target":34963
		},
		{
			"buffer":0,
			"byteLength":2712,
			"byteOffset":405416,
			"target":34962
		},
		{
			"buffer":0,
			"byteLength":2712,
			"byteOffset":408128,
			"target":34962
		},
		{
			"buffer":0,
			"byteLength":804,
			"byteOffset":410840,
			"target":34963
		},
		{
			"buffer":0,
			"byteLength":67752,
			"byteOffset":411644,
			"target":34962
		},
		{
			"buffer":0,
			"byteLength":45168,
			"byteOffset":479396,
			"target":34962
		},
		{
			"buffer":0,
			"byteLength":67752,
			"byteOffset":524564,
			"target":34962
		},
		{
			"buffer":0,
			"byteLength":21912,
			"byteOffset":592316,
			"target":34963
		},
		{
			"buffer":0,
			"byteLength":1000,
			"byteOffset":614228
		},
		{
			"buffer":0,
			"byteLength":4000,
			"byteOffset":615228
		}
	],
	"buffers":[
		{
			"byteLength":619228,
			"uri":"data:application/octet-stream;base64,"
		}
	]
}
